<svg xmlns="http://www.w3.org/2000/svg" width="1280" height="840" viewBox="0 0 1280 840" fill="none">
  <rect width="1280" height="840" fill="#EEF4F8"/>
  <rect x="56" y="44" width="1168" height="752" rx="34" fill="#FBFEFF" stroke="#C7D7E2"/>

  <text x="112" y="110" fill="#577085" font-family="Segoe UI, Arial, sans-serif" font-size="18" font-weight="700" letter-spacing="2">EXAMPLES LAB</text>
  <text x="112" y="154" fill="#102231" font-family="Segoe UI, Arial, sans-serif" font-size="34" font-weight="700">Workspace Flow</text>
  <text x="112" y="192" fill="#4D6372" font-family="Segoe UI, Arial, sans-serif" font-size="18">Seeded from `pilot-workspace-create.json` and the KVM fixture names in this directory.</text>

  <rect x="112" y="228" width="258" height="34" rx="17" fill="#F4F8FB" stroke="#D5E1E8"/>
  <text x="146" y="250" fill="#425B6B" font-family="Segoe UI, Arial, sans-serif" font-size="14" font-weight="700">workspace: lab-assessment</text>
  <rect x="382" y="228" width="194" height="34" rx="17" fill="#E7F3F9"/>
  <text x="414" y="250" fill="#1F657E" font-family="Segoe UI, Arial, sans-serif" font-size="14" font-weight="700">service account auth</text>
  <rect x="588" y="228" width="160" height="34" rx="17" fill="#F4F8FB" stroke="#D5E1E8"/>
  <text x="625" y="250" fill="#425B6B" font-family="Segoe UI, Arial, sans-serif" font-size="14" font-weight="700">target: proxmox</text>

  <rect x="112" y="296" width="468" height="214" rx="28" fill="#FFFFFF" stroke="#D5E1E8"/>
  <text x="146" y="344" fill="#102231" font-family="Segoe UI, Arial, sans-serif" font-size="24" font-weight="700">Workspace intake</text>
  <text x="146" y="376" fill="#5A7181" font-family="Segoe UI, Arial, sans-serif" font-size="16">The lab flow persists the source connection, target assumptions, and plan controls in one record.</text>
  <rect x="146" y="410" width="202" height="44" rx="22" fill="#102231"/>
  <text x="197" y="438" fill="#FFFFFF" font-family="Segoe UI, Arial, sans-serif" font-size="15" font-weight="700">Source: Lab KVM</text>
  <rect x="362" y="410" width="182" height="44" rx="22" fill="#FFFFFF" stroke="#D5E1E8"/>
  <text x="403" y="438" fill="#4C6474" font-family="Segoe UI, Arial, sans-serif" font-size="15" font-weight="700">Host: pve-node-01</text>
  <rect x="146" y="468" width="156" height="44" rx="22" fill="#FFFFFF" stroke="#D5E1E8"/>
  <text x="185" y="496" fill="#4C6474" font-family="Segoe UI, Arial, sans-serif" font-size="15" font-weight="700">Storage: local-lvm</text>
  <rect x="316" y="468" width="120" height="44" rx="22" fill="#FFFFFF" stroke="#D5E1E8"/>
  <text x="350" y="496" fill="#4C6474" font-family="Segoe UI, Arial, sans-serif" font-size="15" font-weight="700">Net: vmbr0</text>
  <rect x="450" y="468" width="94" height="44" rx="22" fill="#FFFFFF" stroke="#D5E1E8"/>
  <text x="476" y="496" fill="#4C6474" font-family="Segoe UI, Arial, sans-serif" font-size="15" font-weight="700">Wave: 2</text>

  <rect x="612" y="296" width="556" height="214" rx="28" fill="#FFFFFF" stroke="#D5E1E8"/>
  <text x="646" y="344" fill="#102231" font-family="Segoe UI, Arial, sans-serif" font-size="24" font-weight="700">Persisted job flow</text>
  <text x="646" y="376" fill="#5A7181" font-family="Segoe UI, Arial, sans-serif" font-size="16">Discovery, graph, simulation, and plan generation are tracked as workspace jobs.</text>
  <rect x="646" y="408" width="118" height="40" rx="20" fill="#EAF7EE"/>
  <text x="676" y="433" fill="#2E7D4D" font-family="Segoe UI, Arial, sans-serif" font-size="14" font-weight="700">discovery: done</text>
  <rect x="778" y="408" width="96" height="40" rx="20" fill="#EAF7EE"/>
  <text x="807" y="433" fill="#2E7D4D" font-family="Segoe UI, Arial, sans-serif" font-size="14" font-weight="700">graph: done</text>
  <rect x="888" y="408" width="124" height="40" rx="20" fill="#FFF1E8"/>
  <text x="918" y="433" fill="#AD5A2A" font-family="Segoe UI, Arial, sans-serif" font-size="14" font-weight="700">simulation: done</text>
  <rect x="1026" y="408" width="112" height="40" rx="20" fill="#EAF7EE"/>
  <text x="1057" y="433" fill="#2E7D4D" font-family="Segoe UI, Arial, sans-serif" font-size="14" font-weight="700">plan: saved</text>
  <rect x="646" y="470" width="226" height="54" rx="18" fill="#F7FBFD"/>
  <text x="672" y="503" fill="#4C6474" font-family="Segoe UI, Arial, sans-serif" font-size="15">approval required: true</text>
  <rect x="888" y="470" width="250" height="54" rx="18" fill="#F7FBFD"/>
  <text x="915" y="503" fill="#4C6474" font-family="Segoe UI, Arial, sans-serif" font-size="15">verify boot: true, dependency aware</text>

  <rect x="112" y="534" width="714" height="214" rx="28" fill="#FFFFFF" stroke="#D5E1E8"/>
  <text x="146" y="582" fill="#102231" font-family="Segoe UI, Arial, sans-serif" font-size="24" font-weight="700">Discovered workloads</text>
  <rect x="146" y="614" width="646" height="106" rx="18" fill="#F7FBFD"/>
  <text x="170" y="646" fill="#5A7181" font-family="Segoe UI, Arial, sans-serif" font-size="13" font-weight="700">NAME</text>
  <text x="342" y="646" fill="#5A7181" font-family="Segoe UI, Arial, sans-serif" font-size="13" font-weight="700">SOURCE</text>
  <text x="490" y="646" fill="#5A7181" font-family="Segoe UI, Arial, sans-serif" font-size="13" font-weight="700">CPU / MEMORY</text>
  <text x="664" y="646" fill="#5A7181" font-family="Segoe UI, Arial, sans-serif" font-size="13" font-weight="700">NETWORK</text>
  <text x="170" y="682" fill="#102231" font-family="Segoe UI, Arial, sans-serif" font-size="15">ubuntu-web-01</text>
  <text x="343" y="682" fill="#4C6474" font-family="Segoe UI, Arial, sans-serif" font-size="15">kvm fixture</text>
  <text x="491" y="682" fill="#4C6474" font-family="Segoe UI, Arial, sans-serif" font-size="15">4 vCPU / 4096 MiB</text>
  <text x="664" y="682" fill="#4C6474" font-family="Segoe UI, Arial, sans-serif" font-size="15">br0</text>
  <text x="170" y="712" fill="#102231" font-family="Segoe UI, Arial, sans-serif" font-size="15">windows-app-01</text>
  <text x="343" y="712" fill="#4C6474" font-family="Segoe UI, Arial, sans-serif" font-size="15">kvm fixture</text>
  <text x="491" y="712" fill="#4C6474" font-family="Segoe UI, Arial, sans-serif" font-size="15">8 vCPU / 8192 MiB</text>
  <text x="664" y="712" fill="#4C6474" font-family="Segoe UI, Arial, sans-serif" font-size="15">default</text>

  <rect x="850" y="534" width="318" height="214" rx="28" fill="#FFFFFF" stroke="#D5E1E8"/>
  <text x="884" y="582" fill="#102231" font-family="Segoe UI, Arial, sans-serif" font-size="24" font-weight="700">End state</text>
  <text x="884" y="614" fill="#5A7181" font-family="Segoe UI, Arial, sans-serif" font-size="16">The lab path ends with a saved plan and report export for the same workspace.</text>
  <rect x="884" y="646" width="184" height="40" rx="20" fill="#102231"/>
  <text x="924" y="671" fill="#FFFFFF" font-family="Segoe UI, Arial, sans-serif" font-size="15" font-weight="700">Export pilot report</text>
  <text x="884" y="714" fill="#4C6474" font-family="Segoe UI, Arial, sans-serif" font-size="15">Next operator step:</text>
  <text x="884" y="738" fill="#102231" font-family="Segoe UI, Arial, sans-serif" font-size="15" font-weight="700">Review report and approval ticket CHG-2026-0405</text>
</svg>
