<svg xmlns="http://www.w3.org/2000/svg" width="1200" height="630" viewBox="0 0 1200 630" fill="none">
  <defs>
    <linearGradient id="bg" x1="120" x2="1118" y1="72" y2="566" gradientUnits="userSpaceOnUse">
      <stop offset="0" stop-color="#0B1730" />
      <stop offset="1" stop-color="#07101C" />
    </linearGradient>
    <linearGradient id="accent" x1="188" x2="458" y1="114" y2="362" gradientUnits="userSpaceOnUse">
      <stop offset="0" stop-color="#7BC1FF" />
      <stop offset="1" stop-color="#6AE2C7" />
    </linearGradient>
  </defs>
  <rect width="1200" height="630" fill="#07101C" />
  <rect x="42" y="42" width="1116" height="546" rx="34" fill="url(#bg)" stroke="#23405A" />
  <g opacity="0.32">
    <path d="M120 90H1092" stroke="#23405A" />
    <path d="M120 156H1092" stroke="#23405A" />
    <path d="M120 222H1092" stroke="#23405A" />
    <path d="M120 288H1092" stroke="#23405A" />
    <path d="M120 354H1092" stroke="#23405A" />
    <path d="M120 420H1092" stroke="#23405A" />
    <path d="M120 486H1092" stroke="#23405A" />
    <path d="M120 552H1092" stroke="#23405A" />
    <path d="M120 90V552" stroke="#23405A" />
    <path d="M252 90V552" stroke="#23405A" />
    <path d="M384 90V552" stroke="#23405A" />
    <path d="M516 90V552" stroke="#23405A" />
    <path d="M648 90V552" stroke="#23405A" />
    <path d="M780 90V552" stroke="#23405A" />
    <path d="M912 90V552" stroke="#23405A" />
    <path d="M1044 90V552" stroke="#23405A" />
  </g>
  <rect x="96" y="96" width="96" height="96" rx="24" fill="#0D1A31" stroke="#2B5276" />
  <path d="M120 122h18l14 36 16-36h18l-26 60h-16l-24-60Z" fill="url(#accent)" />
  <path d="M122 172h58v7h-58Z" fill="#6AE2C7" fill-opacity="0.94" />
  <text x="218" y="148" fill="#88A8C5" font-family="IBM Plex Mono, Consolas, monospace" font-size="18" letter-spacing="4">OPEN-SOURCE OPERATOR CONTROL PLANE</text>
  <text x="96" y="268" fill="#EEF5FF" font-family="Space Grotesk, Segoe UI, sans-serif" font-size="62" font-weight="700">Viaduct</text>
  <text x="96" y="334" fill="#EEF5FF" font-family="Space Grotesk, Segoe UI, sans-serif" font-size="44" font-weight="700">Discovery, dependency mapping, planning, and supervised execution</text>
  <text x="96" y="386" fill="#BFD2E5" font-family="IBM Plex Sans, Segoe UI, sans-serif" font-size="26">Mixed virtualization environments: VMware, Proxmox, Hyper-V, KVM, Nutanix, Veeam, and plugins.</text>
  <text x="96" y="424" fill="#BFD2E5" font-family="IBM Plex Sans, Segoe UI, sans-serif" font-size="26">Open source. Tenant scoped. Best started in the lab or a supervised pilot.</text>
  <rect x="96" y="474" width="214" height="44" rx="22" fill="#102036" stroke="#2B5276" />
  <text x="132" y="502" fill="#EEF5FF" font-family="IBM Plex Sans, Segoe UI, sans-serif" font-size="18" font-weight="700">examples/lab</text>
  <rect x="324" y="474" width="226" height="44" rx="22" fill="#102036" stroke="#2B5276" />
  <text x="362" y="502" fill="#EEF5FF" font-family="IBM Plex Sans, Segoe UI, sans-serif" font-size="18" font-weight="700">make release-gate</text>
  <rect x="564" y="474" width="214" height="44" rx="22" fill="#102036" stroke="#2B5276" />
  <text x="600" y="502" fill="#EEF5FF" font-family="IBM Plex Sans, Segoe UI, sans-serif" font-size="18" font-weight="700">CLI / API / dashboard</text>
  <rect x="820" y="132" width="282" height="360" rx="28" fill="#0D1A31" stroke="#2B5276" />
  <text x="852" y="178" fill="#88A8C5" font-family="IBM Plex Mono, Consolas, monospace" font-size="16" letter-spacing="3">OPERATOR WORKFLOW</text>
  <rect x="852" y="206" width="218" height="46" rx="18" fill="#13243D" />
  <text x="878" y="235" fill="#EEF5FF" font-family="IBM Plex Sans, Segoe UI, sans-serif" font-size="18" font-weight="700">01  Create workspace</text>
  <rect x="852" y="266" width="218" height="46" rx="18" fill="#13243D" />
  <text x="878" y="295" fill="#EEF5FF" font-family="IBM Plex Sans, Segoe UI, sans-serif" font-size="18" font-weight="700">02  Discover and inspect</text>
  <rect x="852" y="326" width="218" height="46" rx="18" fill="#13243D" />
  <text x="878" y="355" fill="#EEF5FF" font-family="IBM Plex Sans, Segoe UI, sans-serif" font-size="18" font-weight="700">03  Simulate readiness</text>
  <rect x="852" y="386" width="218" height="46" rx="18" fill="#13243D" />
  <text x="878" y="415" fill="#EEF5FF" font-family="IBM Plex Sans, Segoe UI, sans-serif" font-size="18" font-weight="700">04  Export and hand off</text>
  <rect x="852" y="458" width="102" height="34" rx="17" fill="#143023" />
  <text x="879" y="480" fill="#8AE7A9" font-family="IBM Plex Sans, Segoe UI, sans-serif" font-size="14" font-weight="700">discovery</text>
  <rect x="966" y="458" width="72" height="34" rx="17" fill="#143023" />
  <text x="988" y="480" fill="#8AE7A9" font-family="IBM Plex Sans, Segoe UI, sans-serif" font-size="14" font-weight="700">graph</text>
  <rect x="1050" y="458" width="88" height="34" rx="17" fill="#382417" />
  <text x="1072" y="480" fill="#FFBE73" font-family="IBM Plex Sans, Segoe UI, sans-serif" font-size="14" font-weight="700">review</text>
</svg>
