<svg xmlns="http://www.w3.org/2000/svg" width="1200" height="630" viewBox="0 0 1200 630" fill="none">
  <defs>
    <linearGradient id="accent" x1="188" x2="458" y1="114" y2="362" gradientUnits="userSpaceOnUse">
      <stop offset="0" stop-color="#1C1917" />
      <stop offset="1" stop-color="#44403C" />
    </linearGradient>
  </defs>
  <rect width="1200" height="630" fill="#FAFAF9" />
  <rect x="42" y="42" width="1116" height="546" rx="34" fill="#FFFFFF" stroke="#E7E5E4" />
  <g opacity="0.5">
    <path d="M120 90H1092" stroke="#F3F2F0" />
    <path d="M120 156H1092" stroke="#F3F2F0" />
    <path d="M120 222H1092" stroke="#F3F2F0" />
    <path d="M120 288H1092" stroke="#F3F2F0" />
    <path d="M120 354H1092" stroke="#F3F2F0" />
    <path d="M120 420H1092" stroke="#F3F2F0" />
    <path d="M120 486H1092" stroke="#F3F2F0" />
    <path d="M120 552H1092" stroke="#F3F2F0" />
    <path d="M120 90V552" stroke="#F3F2F0" />
    <path d="M252 90V552" stroke="#F3F2F0" />
    <path d="M384 90V552" stroke="#F3F2F0" />
    <path d="M516 90V552" stroke="#F3F2F0" />
    <path d="M648 90V552" stroke="#F3F2F0" />
    <path d="M780 90V552" stroke="#F3F2F0" />
    <path d="M912 90V552" stroke="#F3F2F0" />
    <path d="M1044 90V552" stroke="#F3F2F0" />
  </g>
  <rect x="96" y="96" width="96" height="96" rx="24" fill="#FFFFFF" stroke="#E7E5E4" />
  <path d="M120 122h18l14 36 16-36h18l-26 60h-16l-24-60Z" fill="url(#accent)" />
  <path d="M122 172h58v7h-58Z" fill="#44403C" fill-opacity="0.94" />
  <text x="96" y="268" fill="#0C0A09" font-family="Inter, system-ui, sans-serif" font-size="72" font-weight="700">Viaduct</text>
  <text x="96" y="340" fill="#44403C" font-family="Inter, system-ui, sans-serif" font-size="34" font-weight="600">Virtualization migration control plane</text>
  <text x="96" y="392" fill="#78716C" font-family="Inter, system-ui, sans-serif" font-size="24" font-weight="500">viaducthq.com</text>
</svg>
