<svg xmlns="http://www.w3.org/2000/svg" width="1200" height="630" viewBox="0 0 1200 630" fill="none">
  <rect width="1200" height="630" fill="#F6F8F3" />
  <rect x="58" y="54" width="1084" height="522" rx="38" fill="#FFFEFB" stroke="#DCE4DC" stroke-width="2" />
  <rect x="96" y="96" width="58" height="58" rx="18" fill="#176C63" />
  <text x="125" y="135" text-anchor="middle" fill="#FFFFFF" font-family="Sora, Segoe UI, sans-serif" font-size="28" font-weight="700">V</text>
  <text x="176" y="133" fill="#17212B" font-family="Sora, Segoe UI, sans-serif" font-size="34" font-weight="700">Viaduct</text>
  <text x="96" y="220" fill="#176C63" font-family="IBM Plex Mono, Cascadia Mono, monospace" font-size="20" font-weight="500" letter-spacing="2">OPEN-SOURCE MIGRATION CONTROL PLANE</text>
  <text x="96" y="310" fill="#17212B" font-family="Sora, Segoe UI, sans-serif" font-size="68" font-weight="700">Assess. Plan.</text>
  <text x="96" y="386" fill="#17212B" font-family="Sora, Segoe UI, sans-serif" font-size="68" font-weight="700">Operate with evidence.</text>
  <text x="96" y="460" fill="#33414D" font-family="Source Sans 3, Segoe UI, sans-serif" font-size="30" font-weight="500">Virtualization migration workflows for operators, reviewers, and release owners.</text>
  <rect x="770" y="116" width="292" height="316" rx="28" fill="#E6EDF4" stroke="#C7D3CA" />
  <rect x="812" y="160" width="208" height="30" rx="15" fill="#FFFFFF" />
  <rect x="812" y="218" width="142" height="18" rx="9" fill="#176C63" opacity="0.82" />
  <rect x="812" y="258" width="188" height="18" rx="9" fill="#294F75" opacity="0.72" />
  <rect x="812" y="298" width="118" height="18" rx="9" fill="#B77D2A" opacity="0.72" />
  <path d="M842 384C881 334 919 330 956 358C980 376 998 377 1022 354" stroke="#176C63" stroke-width="12" stroke-linecap="round" />
  <text x="96" y="542" fill="#66727D" font-family="Source Sans 3, Segoe UI, sans-serif" font-size="26" font-weight="600">viaducthq.com</text>
  <text x="974" y="542" text-anchor="end" fill="#66727D" font-family="Source Sans 3, Segoe UI, sans-serif" font-size="24" font-weight="600">v3.2.0</text>
</svg>
