<svg xmlns="http://www.w3.org/2000/svg" width="1280" height="820" viewBox="0 0 1280 820" fill="none">
  <defs>
    <linearGradient id="bootstrap-shell" x1="96" y1="72" x2="1184" y2="780" gradientUnits="userSpaceOnUse">
      <stop stop-color="#FBFEFF"/>
      <stop offset="1" stop-color="#E8F1F7"/>
    </linearGradient>
    <linearGradient id="bootstrap-button" x1="0" y1="0" x2="240" y2="48" gradientUnits="userSpaceOnUse">
      <stop stop-color="#102231"/>
      <stop offset="1" stop-color="#1E3A52"/>
    </linearGradient>
  </defs>
  <rect width="1280" height="820" fill="#EAF1F6"/>
  <rect x="40" y="36" width="1200" height="748" rx="36" fill="url(#bootstrap-shell)" stroke="#C8D7E2"/>

  <text x="92" y="98" fill="#5C7689" font-family="Segoe UI, Arial, sans-serif" font-size="17" font-weight="700" letter-spacing="2">OPERATOR BOOTSTRAP</text>
  <text x="92" y="146" fill="#102231" font-family="Segoe UI, Arial, sans-serif" font-size="38" font-weight="700">Connect the Viaduct dashboard</text>
  <text x="92" y="184" fill="#567081" font-family="Segoe UI, Arial, sans-serif" font-size="18">Use a scoped service-account key for day-to-day operator work. Use a tenant key only for bootstrap or recovery.</text>

  <rect x="92" y="212" width="152" height="34" rx="17" fill="#F3F8FB" stroke="#D5E1E8"/>
  <text x="118" y="234" fill="#425B6B" font-family="Segoe UI, Arial, sans-serif" font-size="14" font-weight="700">Viaduct v1.8.0</text>
  <rect x="256" y="212" width="194" height="34" rx="17" fill="#E8F4FA"/>
  <text x="286" y="234" fill="#1E657E" font-family="Segoe UI, Arial, sans-serif" font-size="14" font-weight="700">Runtime authentication</text>
  <rect x="462" y="212" width="218" height="34" rx="17" fill="#F3F8FB" stroke="#D5E1E8"/>
  <text x="492" y="234" fill="#425B6B" font-family="Segoe UI, Arial, sans-serif" font-size="14" font-weight="700">Session storage is the default</text>

  <rect x="92" y="276" width="678" height="462" rx="30" fill="#FFFFFF" stroke="#D5E1E8"/>
  <text x="128" y="328" fill="#5C7689" font-family="Segoe UI, Arial, sans-serif" font-size="13" font-weight="700" letter-spacing="1.6">AUTHENTICATION</text>
  <text x="128" y="364" fill="#102231" font-family="Segoe UI, Arial, sans-serif" font-size="28" font-weight="700">Runtime credential bootstrap</text>
  <text x="128" y="396" fill="#5A7181" font-family="Segoe UI, Arial, sans-serif" font-size="16">The dashboard accepts runtime credentials so operators do not need to rebuild the frontend when keys rotate.</text>

  <rect x="128" y="432" width="306" height="46" rx="23" fill="#102231"/>
  <text x="219" y="461" fill="#FFFFFF" font-family="Segoe UI, Arial, sans-serif" font-size="16" font-weight="700">Service account</text>
  <rect x="446" y="432" width="170" height="46" rx="23" fill="#F6FAFC" stroke="#D5E1E8"/>
  <text x="496" y="461" fill="#536B7A" font-family="Segoe UI, Arial, sans-serif" font-size="16" font-weight="700">Tenant key</text>

  <text x="128" y="524" fill="#102231" font-family="Segoe UI, Arial, sans-serif" font-size="15" font-weight="700">Service-account key</text>
  <rect x="128" y="544" width="606" height="60" rx="20" fill="#FCFEFF" stroke="#C8D7E2"/>
  <circle cx="172" cy="574" r="4" fill="#7E95A4"/>
  <circle cx="190" cy="574" r="4" fill="#7E95A4"/>
  <circle cx="208" cy="574" r="4" fill="#7E95A4"/>
  <circle cx="226" cy="574" r="4" fill="#7E95A4"/>
  <circle cx="244" cy="574" r="4" fill="#7E95A4"/>
  <circle cx="262" cy="574" r="4" fill="#7E95A4"/>
  <circle cx="280" cy="574" r="4" fill="#7E95A4"/>
  <text x="128" y="632" fill="#5A7181" font-family="Segoe UI, Arial, sans-serif" font-size="15">Preferred for the guided workspace flow, persisted jobs, and exported pilot reports.</text>

  <rect x="128" y="650" width="606" height="66" rx="22" fill="#F6FAFC" stroke="#D5E1E8"/>
  <rect x="152" y="670" width="18" height="18" rx="5" fill="#FFFFFF" stroke="#B9CAD5"/>
  <path d="M156 678l4 4 8-8" stroke="#1E657E" stroke-width="2" stroke-linecap="round" stroke-linejoin="round"/>
  <text x="184" y="676" fill="#102231" font-family="Segoe UI, Arial, sans-serif" font-size="15" font-weight="700">Remember this browser</text>
  <text x="184" y="698" fill="#5A7181" font-family="Segoe UI, Arial, sans-serif" font-size="14">Keep the key in local browser storage only for trusted operator workstations.</text>

  <rect x="128" y="728" width="236" height="48" rx="24" fill="url(#bootstrap-button)"/>
  <text x="192" y="758" fill="#FFFFFF" font-family="Segoe UI, Arial, sans-serif" font-size="16" font-weight="700">Connect dashboard</text>
  <rect x="378" y="728" width="196" height="48" rx="24" fill="#FFFFFF" stroke="#D5E1E8"/>
  <text x="430" y="758" fill="#536B7A" font-family="Segoe UI, Arial, sans-serif" font-size="16" font-weight="700">Forget browser key</text>

  <rect x="794" y="276" width="394" height="218" rx="30" fill="#FFFFFF" stroke="#D5E1E8"/>
  <text x="828" y="328" fill="#5C7689" font-family="Segoe UI, Arial, sans-serif" font-size="13" font-weight="700" letter-spacing="1.6">RECOMMENDED FLOW</text>
  <text x="828" y="362" fill="#102231" font-family="Segoe UI, Arial, sans-serif" font-size="26" font-weight="700">What operators do next</text>
  <rect x="828" y="390" width="326" height="44" rx="18" fill="#F4F8FB"/>
  <text x="850" y="417" fill="#445C6C" font-family="Segoe UI, Arial, sans-serif" font-size="14">01  Create a workspace with source and target defaults.</text>
  <rect x="828" y="444" width="326" height="44" rx="18" fill="#F4F8FB"/>
  <text x="850" y="471" fill="#445C6C" font-family="Segoe UI, Arial, sans-serif" font-size="14">02  Run discovery, inspect workloads, and review the graph.</text>
  <rect x="828" y="498" width="326" height="44" rx="18" fill="#F4F8FB"/>
  <text x="850" y="525" fill="#445C6C" font-family="Segoe UI, Arial, sans-serif" font-size="14">03  Simulate readiness, save the plan, and export evidence.</text>

  <rect x="794" y="514" width="394" height="146" rx="30" fill="#FFFFFF" stroke="#D5E1E8"/>
  <text x="828" y="566" fill="#5C7689" font-family="Segoe UI, Arial, sans-serif" font-size="13" font-weight="700" letter-spacing="1.6">CREDENTIAL HANDLING</text>
  <text x="828" y="600" fill="#102231" font-family="Segoe UI, Arial, sans-serif" font-size="26" font-weight="700">Storage and recovery</text>
  <rect x="828" y="620" width="160" height="28" rx="14" fill="#F4F8FB"/>
  <text x="846" y="638" fill="#5A7181" font-family="Segoe UI, Arial, sans-serif" font-size="12" font-weight="700">Current source</text>
  <text x="1002" y="638" fill="#102231" font-family="Segoe UI, Arial, sans-serif" font-size="12" font-weight="700">No credential configured</text>
  <rect x="828" y="654" width="160" height="28" rx="14" fill="#F4F8FB"/>
  <text x="846" y="672" fill="#5A7181" font-family="Segoe UI, Arial, sans-serif" font-size="12" font-weight="700">Persistence</text>
  <text x="1002" y="672" fill="#102231" font-family="Segoe UI, Arial, sans-serif" font-size="12" font-weight="700">Nothing stored yet</text>
  <rect x="828" y="688" width="160" height="28" rx="14" fill="#F4F8FB"/>
  <text x="846" y="706" fill="#5A7181" font-family="Segoe UI, Arial, sans-serif" font-size="12" font-weight="700">Recommended default</text>
  <text x="1002" y="706" fill="#102231" font-family="Segoe UI, Arial, sans-serif" font-size="12" font-weight="700">Session-only browser storage</text>

  <rect x="794" y="680" width="394" height="58" rx="22" fill="#F4F8FB" stroke="#D5E1E8"/>
  <text x="828" y="704" fill="#102231" font-family="Segoe UI, Arial, sans-serif" font-size="14" font-weight="700">Current API context</text>
  <text x="828" y="724" fill="#5A7181" font-family="Segoe UI, Arial, sans-serif" font-size="13">Tenant context will appear after validation. Tenant-scoped operator access stays visible after bootstrap.</text>
</svg>
